#!OML:ASF E:\Mandelcareful walks\Project 1\Capture day 1\Session 1\Subject1.ASF
:FULLY-SPECIFIED
:DEGREES
102
root -15.2252 14.7504 -1.9467 -163.634 12.8355 172.322
lowerback 25.0669 -0.32894 -1.40812
upperback 7.19735 0.471238 -2.17308
thorax -5.94677 0.81965 -1.76213
lowerneck -28.7202 2.55642 -0.840932
upperneck 11.7337 5.82241 -8.51155
head 8.54124 1.90371 -1.89957
rclavicle 7.95139e-016 -2.06736e-014
rhumerus -5.75866 8.4059 -69.9461
rradius 67.2961
rwrist -13.4258
rhand -16.9054 -22.8056
rfingers 7.12502
rthumb 9.32658 -52.5793
lclavicle 7.95139e-016 -2.06736e-014
lhumerus -17.9507 -22.6231 68.9058
lradius 62.926
lwrist 23.4221
lhand -23.8404 -21.2407
lfingers 7.12502
lthumb 2.63154 8.72279
rfemur -53.3708 -20.5867 21.0529
rtibia 72.8207
rfoot -32.4487 -7.50206
rtoes 2.64884
lfemur -67.8074 19.8018 -32.3777
ltibia 69.3522
lfoot -15.1817 -10.2998
ltoes -31.1657
103
root -15.191 14.7376 -2.00873 -163.549 12.6176 172.733
lowerback 25.079 -0.101251 -0.995717
upperback 7.17756 0.859929 -2.32328
thorax -5.96222 1.00802 -2.2782
lowerneck -28.7812 2.34197 -0.412219
upperneck 11.8353 5.36506 -8.47934
head 8.57368 1.70262 -2.02904
rclavicle -1.43125e-014 -2.46493e-014
rhumerus -6.1024 7.56208 -70.2912
rradius 67.6532
rwrist -13.3776
rhand -16.5087 -22.6035
rfingers 7.12502
rthumb 9.70934 -52.3597
lclavicle -1.43125e-014 -2.46493e-014
lhumerus -16.9035 -23.8929 68.5858
lradius 63.6071
lwrist 23.6251
lhand -23.6509 -21.1539
lfingers 7.12502
lthumb 2.81452 8.8073
rfemur -52.978 -20.3398 21.4495
rtibia 72.9013
rfoot -32.8801 -7.91394
rtoes 2.3401
lfemur -68.2127 19.3862 -32.7597
ltibia 69.5194
lfoot -14.2645 -10.8291
ltoes -31.3285
104
root -15.1649 14.72 -2.07581 -163.514 12.4753 173.002
lowerback 25.1467 0.0823336 -0.867981
upperback 7.12644 1.11754 -2.44718
thorax -6.04014 1.13173 -2.56677
lowerneck -28.7728 2.24333 -0.0855209
upperneck 11.8879 5.07616 -8.37648
head 8.5793 1.58639 -2.09178
rclavicle -3.06128e-014 2.94201e-014
rhumerus -6.39085 6.99415 -70.5985
rradius 67.9581
rwrist -13.201
rhand -16.1831 -22.5349
rfingers 7.12502
rthumb 10.0235 -52.2762
lclavicle -3.06128e-014 2.94201e-014
lhumerus -16.1137 -24.7782 68.3761
lradius 64.434
lwrist 23.8739
lhand -23.0215 -21.0814
lfingers 7.12502
lthumb 3.42237 8.8709
rfemur -52.593 -20.4042 21.8457
rtibia 72.9735
rfoot -33.1148 -8.81192
rtoes -0.40401
lfemur -68.3213 18.7362 -32.8361
ltibia 69.6261
lfoot -12.4588 -11.0035
ltoes -30.2045
105
root -15.1416 14.7061 -2.14979 -163.61 12.2731 173.277
lowerback 25.3452 0.0570106 -1.03036
upperback 7.11331 1.05288 -2.35965
thorax -6.15892 1.10271 -2.36578
lowerneck -28.8099 2.26751 -0.297265
upperneck 11.8192 5.11688 -8.07542
head 8.54571 1.62822 -1.94771
rclavicle 1.70955e-014 -4.37326e-015
rhumerus -6.33551 7.35831 -70.7462
rradius 68.1885
rwrist -13.1579
rhand -16.1129 -22.33
rfingers 7.12502
rthumb 10.0912 -52.068
lclavicle 1.70955e-014 -4.37326e-015
lhumerus -15.6582 -24.6679 68.4192
lradius 65.2181
lwrist 23.9731
lhand -22.319 -20.9611
lfingers 7.12502
lthumb 4.10069 8.97916
rfemur -51.9716 -20.5634 22.2178
rtibia 72.9805
rfoot -33.3818 -9.68069
rtoes -2.94216
lfemur -67.8984 17.9579 -32.5413
ltibia 69.5995
lfoot -10.4041 -10.9491
ltoes -25.9221
106
root -15.124 14.7073 -2.2314 -163.49 12.263 173.661
lowerback 25.1537 0.0781411 -1.27547
upperback 7.11724 1.02138 -2.23426
thorax -6.06478 1.08331 -2.07148
lowerneck -29.0012 2.33144 -0.535494
upperneck 11.8308 5.2512 -7.84442
head 8.57016 1.70007 -1.80921
rclavicle -2.3059e-014 -1.63003e-014
rhumerus -6.21375 7.98279 -70.8402
rradius 68.4639
rwrist -13.2648
rhand -16.0488 -22.4274
rfingers 7.12502
rthumb 10.1531 -52.1624
lclavicle -2.3059e-014 -1.63003e-014
lhumerus -15.1627 -24.4627 68.4242
lradius 65.8437
lwrist 23.8603
lhand -22.1198 -21.1535
lfingers 7.12502
lthumb 4.29306 8.78299
rfemur -51.5868 -20.3653 22.5886
rtibia 72.9299
rfoot -33.7313 -10.23
rtoes -3.21888
lfemur -67.3481 17.2157 -32.0184
ltibia 69.4419
lfoot -8.88848 -11.0406
ltoes -13.2342
